# xmcd
#
# Track frame offsets:
#	150
#	16832
#	35362
#	49505
#	67042
#	83880
#	99867
#	113055
#	127702
#	143827
#	159725
#	172185
#
# Disc length: 2454
#
# Revision: 1
# Processed by: cddbd v1.5.1PL0 Copyright (c) Steve Scherf et al.
# Submitted via: VisiTrax 2.9.5.180 - For more info visit www.synapsa.com
# Normalized: r0:DSETVAR1
#
DISCID=9209940c
DTITLE=Various Artist - CDX 95 October 1994
DYEAR=1994
DGENRE=
TTITLE0=George JOnes - Alan Jackson - A good year for the roses
TTITLE1=Travis Tritt - Between an old memory and me
TTITLE2=Patty Loveless - Here I am
TTITLE3=Rodney Crowell - Trisha Yearwood - I don't fall in love so easy
TTITLE4=James House - Little by little
TTITLE5=Larry Stewart - Losing your love
TTITLE6=Pam Tillis - Mi vida loca
TTITLE7=Wase Hayes - Old enough to know better
TTITLE8=Lisa Brokop - Take that
TTITLE9=Cleve Francis - Patti Austin - We fell in love anyway
TTITLE10=Doug Supernaw - What'll you do about me
TTITLE11=Buc Williams - Marryin' Maryann
EXTD=
EXTT0=
EXTT1=
EXTT2=
EXTT3=
EXTT4=
EXTT5=
EXTT6=
EXTT7=
EXTT8=
EXTT9=
EXTT10=
EXTT11=
PLAYORDER=
